<?xml version="1.0" standalone="no"?><!DOCTYPE svg PUBLIC "-//W3C//DTD SVG 1.1//EN" "http://www.w3.org/Graphics/SVG/1.1/DTD/svg11.dtd"><svg class="icon" width="48px" height="48.00px" viewBox="0 0 1024 1024" version="1.1" xmlns="http://www.w3.org/2000/svg"><path d="M358.4 871.2H45.152C19.936 871.2 0 843.904 0 819.2s19.936-50.624 45.152-50.624h56.64l-1.088-283.168c0-204.608 164.032-374.56 337.056-412.576v-1.28C437.76 32.032 470.496 0 510.848 0s73.088 32.032 73.088 71.552v1.28C756.96 110.848 922.08 280.8 922.08 485.408v283.168h55.008c25.216 0 46.944 25.92 46.944 50.624s-21.696 52-46.944 52H665.632c-0.416 84.48-69.024 152.8-153.6 152.8s-153.184-68.352-153.6-152.8z m102.4 0c0.416 27.904 23.168 50.4 51.2 50.4s50.784-22.496 51.2-50.4H460.8z m357.216-103.328v-282.56c0-179.808-149.536-329.984-307.104-329.984S204.544 305.472 204.544 485.312v282.56h613.472z" /></svg>